<svg xmlns="http://www.w3.org/2000/svg" width="24" height="24" viewBox="0 0 24 24" fill="none" stroke="#d8dde7" stroke-width="2" stroke-linecap="round" stroke-linejoin="round">
  <path d="M12 15.5a3.5 3.5 0 1 0 0-7 3.5 3.5 0 0 0 0 7Z"/>
  <path d="M19.4 15a1.8 1.8 0 0 0 .36 1.98l.06.06a2.2 2.2 0 0 1-3.11 3.11l-.06-.06a1.8 1.8 0 0 0-1.98-.36 1.8 1.8 0 0 0-1.09 1.65V21.5a2.2 2.2 0 0 1-4.4 0v-.09a1.8 1.8 0 0 0-1.18-1.68 1.8 1.8 0 0 0-1.98.36l-.06.06a2.2 2.2 0 0 1-3.11-3.11l.06-.06A1.8 1.8 0 0 0 4.6 15a1.8 1.8 0 0 0-1.65-1.09H2.5a2.2 2.2 0 0 1 0-4.4h.09A1.8 1.8 0 0 0 4.27 8.4a1.8 1.8 0 0 0-.36-1.98l-.06-.06a2.2 2.2 0 0 1 3.11-3.11l.06.06A1.8 1.8 0 0 0 9 3.67a1.8 1.8 0 0 0 1.09-1.65V1.5a2.2 2.2 0 0 1 4.4 0v.09A1.8 1.8 0 0 0 15.6 3.27a1.8 1.8 0 0 0 1.98-.36l.06-.06a2.2 2.2 0 0 1 3.11 3.11l-.06.06A1.8 1.8 0 0 0 20.33 8c.07.26.16.52.27.76.28.67.93 1.1 1.65 1.1h.25a2.2 2.2 0 0 1 0 4.4h-.09A1.8 1.8 0 0 0 19.4 15Z"/>
</svg>
